<svg width="16" height="16" viewBox="0 0 16 16" fill="none" xmlns="http://www.w3.org/2000/svg">
<path d="M8.00016 2.66668C6.58568 2.66668 5.22912 3.22858 4.22893 4.22877C3.22873 5.22897 2.66683 6.58552 2.66683 8.00001C2.66683 8.70039 2.80478 9.39392 3.07281 10.041C3.34083 10.6881 3.73368 11.276 4.22893 11.7712C4.72417 12.2665 5.31212 12.6593 5.95918 12.9274C6.60625 13.1954 7.29978 13.3333 8.00016 13.3333C8.70055 13.3333 9.39407 13.1954 10.0411 12.9274C10.6882 12.6593 11.2762 12.2665 11.7714 11.7712C12.2666 11.276 12.6595 10.6881 12.9275 10.041C13.1955 9.39392 13.3335 8.70039 13.3335 8.00001C13.3335 6.58552 12.7716 5.22897 11.7714 4.22877C10.7712 3.22858 9.41465 2.66668 8.00016 2.66668ZM3.28612 3.28596C4.53636 2.03572 6.23205 1.33334 8.00016 1.33334C9.76827 1.33334 11.464 2.03572 12.7142 3.28596C13.9644 4.53621 14.6668 6.2319 14.6668 8.00001C14.6668 8.87549 14.4944 9.7424 14.1594 10.5512C13.8243 11.3601 13.3333 12.095 12.7142 12.7141C12.0952 13.3331 11.3602 13.8242 10.5514 14.1592C9.74255 14.4942 8.87564 14.6667 8.00016 14.6667C7.12468 14.6667 6.25778 14.4942 5.44894 14.1592C4.6401 13.8242 3.90517 13.3331 3.28612 12.7141C2.66706 12.095 2.176 11.3601 1.84097 10.5512C1.50593 9.7424 1.3335 8.87549 1.3335 8.00001C1.3335 6.2319 2.03587 4.53621 3.28612 3.28596Z" fill="#848484"/>
<path d="M7.58311 8.52014C7.43092 8.39796 7.3335 8.21036 7.3335 8.00001V5.33334C7.3335 4.96515 7.63197 4.66668 8.00016 4.66668C8.36835 4.66668 8.66683 4.96515 8.66683 5.33334V7.72387L10.7549 9.81192C11.0152 10.0723 11.0152 10.4944 10.7549 10.7547C10.4945 11.0151 10.0724 11.0151 9.81208 10.7547L7.63205 8.57471C7.61456 8.55722 7.59825 8.539 7.58311 8.52014Z" fill="#848484"/>
</svg>
