<svg width="16" height="16" viewBox="0 0 16 16" fill="none" xmlns="http://www.w3.org/2000/svg">
<path d="M7.65384 1.33423C4.93863 1.33423 2.77447 3.60364 2.90329 6.31579C2.96505 7.61592 3.56337 8.82694 4.50457 9.726C5.15893 10.3511 5.8785 11.0804 6.33334 11.6676C7.26304 12.8677 8 14.6676 8 14.6676C8 14.6676 8.73697 12.8677 9.66667 11.6676C10.1215 11.0804 10.8411 10.3511 11.4954 9.726C12.4366 8.82694 13.035 7.61592 13.0967 6.31579C13.2255 3.60364 11.0614 1.33423 8.34617 1.33423H7.65384ZM8 8.33423C6.89543 8.33423 6 7.4388 6 6.33423C6 5.22966 6.89543 4.33423 8 4.33423C9.10457 4.33423 10 5.22966 10 6.33423C10 7.4388 9.10457 8.33423 8 8.33423Z" fill="#A2A7AA"/>
</svg>
