<svg width="24" height="24" viewBox="0 0 24 24" fill="none" xmlns="http://www.w3.org/2000/svg">
<path d="M8.27387 6.71042C9.10233 8.14535 8.74843 9.3233 7.79181 9.8756C6.83519 10.4279 5.6381 10.1454 4.80965 8.71049C3.98119 7.27557 4.08509 5.66459 5.04171 5.11229C5.99833 4.55998 7.44542 5.27549 8.27387 6.71042Z" fill="#A2A7AA"/>
<path d="M18.1688 8.73264C19.1254 8.18033 19.4793 7.00239 18.6508 5.56746C17.8224 4.13253 16.3753 3.41702 15.4187 3.96933C14.462 4.52163 14.3581 6.1326 15.1866 7.56753C16.0151 9.00246 17.2121 9.28494 18.1688 8.73264Z" fill="#A2A7AA"/>
<path d="M6.67977 12.479C7.50823 13.9139 7.15432 15.0918 6.1977 15.6441C5.24108 16.1964 4.044 15.914 3.21554 14.479C2.38709 13.0441 2.49098 11.4331 3.4476 10.8808C4.40422 10.3285 5.85131 11.044 6.67977 12.479Z" fill="#A2A7AA"/>
<path d="M7.88887 18.7939C7.39513 17.9388 8.0513 16.8416 8.59539 16.0175C8.77869 15.7399 8.77465 15.3149 8.76978 14.8021C8.75828 13.5913 8.74212 11.8912 11.1756 10.4862C13.6091 9.08126 15.0734 9.9453 16.1161 10.5606C16.5578 10.8213 16.9239 11.0373 17.256 11.0173C18.2417 10.9582 19.5199 10.9385 20.0137 11.7937L20.4021 12.4665C21.5803 14.5071 21.0357 17.207 18.8965 18.1948C18.7926 18.2428 18.6906 18.288 18.5909 18.3298C18.2267 18.4827 17.9782 18.5235 17.7289 18.5644C17.3497 18.6266 16.9686 18.6891 16.1758 19.1468C15.383 19.6045 15.1383 19.9033 14.8948 20.2006C14.7347 20.3961 14.5752 20.5909 14.2607 20.8299C14.1746 20.8952 14.0845 20.961 13.991 21.027C12.0659 22.3857 9.45547 21.5074 8.27734 19.4668L7.88887 18.7939Z" fill="#A2A7AA"/>
<path d="M12.3757 7.22917C13.3323 6.67687 13.6862 5.49892 12.8578 4.06399C12.0293 2.62906 10.5822 1.91356 9.62561 2.46586C8.66899 3.01816 8.56509 4.62914 9.39355 6.06407C10.222 7.499 11.4191 7.78148 12.3757 7.22917Z" fill="#A2A7AA"/>
</svg>
