<svg width="24" height="24" viewBox="0 0 24 24" fill="none" xmlns="http://www.w3.org/2000/svg">
<path d="M12.0002 2C12.5524 2 13.0002 2.44772 13.0002 3V4.5C13.0002 5.05228 12.5524 5.5 12.0002 5.5C11.4479 5.5 11.0002 5.05228 11.0002 4.5V3C11.0002 2.44772 11.4479 2 12.0002 2Z" fill="#808587"/>
<path d="M7.75751 8.75736C8.88273 7.63214 10.4089 7 12.0002 7C13.5915 7 15.1176 7.63214 16.2428 8.75736C17.368 9.88258 18.0002 11.4087 18.0002 13C18.0002 13.7879 17.845 14.5681 17.5434 15.2961C17.2419 16.0241 16.7999 16.6855 16.2428 17.2426C15.9594 17.526 15.6491 17.7796 15.3168 18H20.0002C20.5524 18 21.0002 18.4477 21.0002 19C21.0002 19.5523 20.5524 20 20.0002 20L4.00015 20C3.44787 20 3.00015 19.5523 3.00015 19C3.00015 18.4477 3.44787 18 4.00015 18H8.68353C8.35119 17.7796 8.04087 17.526 7.75751 17.2426C7.20036 16.6855 6.7584 16.0241 6.45688 15.2961C6.15535 14.5681 6.00015 13.7879 6.00015 13C6.00015 11.4087 6.63229 9.88258 7.75751 8.75736Z" fill="#808587"/>
<path d="M4.29304 5.29289C4.68357 4.90237 5.31673 4.90237 5.70726 5.29289L6.70726 6.29289C7.09778 6.68342 7.09778 7.31658 6.70726 7.70711C6.31673 8.09763 5.68357 8.09763 5.29304 7.70711L4.29304 6.70711C3.90252 6.31658 3.90252 5.68342 4.29304 5.29289Z" fill="#808587"/>
<path d="M2.58594 12C2.03365 12 1.58594 12.4477 1.58594 13C1.58594 13.5523 2.03365 14 2.58594 14H4.00015C4.55244 14 5.00015 13.5523 5.00015 13C5.00015 12.4477 4.55244 12 4.00015 12H2.58594Z" fill="#808587"/>
<path d="M19.0001 13C19.0001 12.4477 19.4479 12 20.0001 12H21.4144C21.9666 12 22.4144 12.4477 22.4144 13C22.4144 13.5523 21.9666 14 21.4144 14H20.0001C19.4479 14 19.0001 13.5523 19.0001 13Z" fill="#808587"/>
<path d="M18.293 5.29289C18.6836 4.90237 19.3167 4.90237 19.7073 5.29289C20.0978 5.68342 20.0978 6.31658 19.7073 6.70711L18.7073 7.70711C18.3167 8.09763 17.6836 8.09763 17.293 7.70711C16.9025 7.31658 16.9025 6.68342 17.293 6.29289L18.293 5.29289Z" fill="#808587"/>
</svg>
